
	<svg xmlns="http://www.w3.org/2000/svg" xmlns:xlink="http://www.w3.org/1999/xlink" version="1.1" width="256" height="256" viewBox="0 0 100 100">


		<defs>
			<g id="background" transform="matrix( 2, 0, 0, 2, -76.6,-218) ">
			<path d=" M 63.3 109 Q 52.95 109 45.65 116.3 38.3 123.6 38.3 134 38.3 144.35 45.65 151.7 52.95 159 63.3 159 73.65 159 81 151.7 88.3 144.35 88.3 134 88.3 123.6 81 116.3 73.65 109 63.3 109 Z"/>
		</g><g id="middle-1" transform="matrix( 2, 0, 0, 2, 19.6,21) ">
			<path fill="#000000" fill-opacity="0.4" stroke="none" d=" M 40.2 14.5 Q 40.2 12.05 39.75 9.7 L 30.05 0 20.4 18.25 0 28.55 10.45 39 Q 13.05 39.5 15.2 39.5 25.55 39.5 32.9 32.2 40.2 24.85 40.2 14.5 Z"/>
		</g><g id="middle-2" transform="matrix( 2, 0, 0, 2, -76.6,-218) ">
			<path fill="#FFFFFF" stroke="none" d=" M 77.95 119.3 Q 71.9 113.2 63.3 113.2 54.7 113.2 48.65 119.3 42.55 125.4 42.55 134 42.55 142.6 48.65 148.65 54.7 154.75 63.3 154.75 71.9 154.75 77.95 148.65 84.05 142.6 84.05 134 84.05 125.4 77.95 119.3 Z"/>
		</g><mask id="mask">
			<g transform="matrix( 2, 0, 0, 2, -76.6,-218) ">
				<path fill="#FFFFFF" stroke="none" d=" M 77.95 119.3 Q 71.9 113.2 63.3 113.2 54.7 113.2 48.65 119.3 42.55 125.4 42.55 134 42.55 142.6 48.65 148.65 54.7 154.75 63.3 154.75 71.9 154.75 77.95 148.65 84.05 142.6 84.05 134 84.05 125.4 77.95 119.3 Z"/>
			</g>
		</mask>
			
	<linearGradient id="background-gradient" x1="0" y1="0" y2="1" x2="0" >
		<stop stop-color="#f1af31" offset="0%"/>
		<stop stop-color="#f1af31" offset="100%"/>
	</linearGradient>

			
			
			<g transform="scale(1.0000000762939512) translate(-100.00000762939453 -100.00000762939453)" id="picture">
    <path d="M190.833 140.833c-4.375 0-7.916 3.125-8.958 7.084h-10.417c-.416-4.375-2.083-8.542-4.791-11.667l7.5-7.5c3.541 2.292 8.333 1.875 11.25-1.25 3.541-3.542 3.541-9.375 0-12.917-3.542-3.541-9.375-3.541-12.917 0-3.125 3.125-3.542 7.709-1.25 11.25l-7.5 7.5c-3.333-2.708-7.292-4.375-11.667-4.791v-10.417c4.167-.833 7.084-4.583 7.084-8.958 0-5-4.167-9.167-9.167-9.167s-9.167 4.167-9.167 9.167c0 4.375 3.125 7.916 7.084 8.958v10.417c-4.375.416-8.542 2.083-11.667 4.791l-7.5-7.5c2.292-3.541 1.875-8.333-1.25-11.25-3.542-3.541-9.375-3.541-12.917 0-3.541 3.542-3.541 9.375 0 12.917 3.125 3.125 7.709 3.542 11.25 1.25l7.5 7.5c-2.708 3.333-4.375 7.292-4.791 11.667h-10.417c-.833-3.959-4.583-7.084-8.958-7.084-5 0-9.167 4.167-9.167 9.167s4.167 9.167 9.167 9.167c4.375 0 7.916-3.125 8.958-7.084h10.417c.416 4.375 2.083 8.542 4.791 11.667l-7.5 7.5c-3.541-2.292-8.333-1.875-11.25 1.25-3.541 3.542-3.541 9.375 0 12.917 3.542 3.541 9.375 3.541 12.917 0 3.125-3.125 3.542-7.709 1.25-11.25l7.5-7.5c3.333 2.708 7.292 4.375 11.667 4.791v10.417c-4.167.833-7.084 4.583-7.084 8.958 0 5 4.167 9.167 9.167 9.167s9.167-4.167 9.167-9.167c0-4.375-3.125-7.916-7.084-8.958v-10.417c4.375-.416 8.542-2.083 11.667-4.791l7.5 7.5c-2.292 3.541-1.875 8.333 1.25 11.25 3.542 3.541 9.375 3.541 12.917 0 3.541-3.542 3.541-9.375 0-12.917-3.125-3.125-7.709-3.542-11.25-1.25l-7.5-7.5c2.708-3.333 4.375-7.292 4.791-11.667h10.417c.833 4.167 4.583 7.084 8.958 7.084 5 0 9.167-4.167 9.167-9.167s-4.167-9.167-9.167-9.167z" fill="#114e73"/>
    <path d="M142.583 143.049c-1.05-1.05-5.247-1.05-6.106-1.05-.286 0-.477.191-.477.477v10.495c0 .286.19.477.477.477h3.816c.191 0 .382-.19.477-.382.096-.286 1.622-6.487 1.908-9.635 0-.191 0-.287-.095-.382zm3.244 5.343c0 .095.095.19.286.286 1.05.381 1.717.19 2.29-.763.095-.096.19-.191.381-.191.286 0 .382-.096.668-.287.286-.19.572-.381 1.145-.667h.19c.096 0 .287.095.382.095.668.668 1.908 1.717 3.244 2.767 1.431 1.145 2.958 2.29 4.007 3.339l-.286-1.24c-.763-2.1-1.813-4.77-2.48-6.01-.764-.382-1.909-.86-3.15-1.336-.762-.382-1.43-.573-2.003-.573-.954 0-1.812.477-3.148 1.908-.859.668-1.622 2.004-1.526 2.672zm18.317-5.439c-4.675 0-7.632.955-7.823.955-.095 0-.286.19-.286.286-.096.095 0 .286 0 .381.763 1.24 3.339 7.824 3.72 9.445.096.191.287.382.478.382h3.816c.286 0 .477-.19.477-.477v-10.494c.095-.287-.096-.478-.382-.478zm-10.303 7.442a67.786 67.786 0 0 1-3.149-2.576 1.463 1.463 0 0 0-.572.382c-.286.19-.477.381-.954.477-.859 1.145-1.908 1.43-3.244.954-.668-.191-.859-.668-.954-.954-.286-1.145.859-2.767 1.717-3.626.382-.381.859-.763 1.24-1.05h-4.293c-.381 3.245-1.812 9.16-1.908 9.446 0 .095-.095.095-.095.19l1.24 1.241c2.385 2.003 5.438 4.102 5.724 4.293.573.382 1.145.573 1.718.573.381 0 .954 0 1.43-.287l-2.289-2.29c-.19-.19-.19-.476 0-.667s.477-.19.668 0l2.385 2.385c.286.286.859.382 1.145 0 .381-.286.381-.859 0-1.24l-2.862-2.862a.461.461 0 0 1 0-.668c.095-.096.286-.191.477-.096l4.007 4.007c.19.191.477.287.667.287s.477-.096.668-.287a.922.922 0 0 0 0-1.335l-4.388-4.58c0-.19 0-.286.095-.477.19-.19.477-.19.668 0 0 0 .286.477.382.573l4.293 4.293c.19.19.477.286.668.286s.477-.095.667-.286a.922.922 0 0 0 0-1.336c.096-.095-5.151-4.77-5.151-4.77z" fill="#fff"/>
</g>
			
		</defs>

		

			<use xlink:href="#background" fill="url(#background-gradient)" />

		<use xlink:href="#middle-1" /><use xlink:href="#middle-2" />

			<g mask="url(#mask)">
				<g transform="
				        translate(
                                50 50
)
                            translate(0 0)  scale(0.5750000000000001)  
                            translate(
                                -50 -50
)">
						<use xlink:href="#picture"   />
				</g>
			</g>

		



	</svg>
