
	<svg xmlns="http://www.w3.org/2000/svg" xmlns:xlink="http://www.w3.org/1999/xlink" version="1.1" width="256" height="256" viewBox="0 0 100 100">


		<defs>
			<g id="background" transform="matrix( 2, 0, 0, 2, -76.6,-218) ">
			<path d=" M 63.3 109 Q 52.95 109 45.65 116.3 38.3 123.6 38.3 134 38.3 144.35 45.65 151.7 52.95 159 63.3 159 73.65 159 81 151.7 88.3 144.35 88.3 134 88.3 123.6 81 116.3 73.65 109 63.3 109 Z"/>
		</g><g id="middle-1" transform="matrix( 2, 0, 0, 2, 19.6,21) ">
			<path fill="#000000" fill-opacity="0.4" stroke="none" d=" M 40.2 14.5 Q 40.2 12.05 39.75 9.7 L 30.05 0 20.4 18.25 0 28.55 10.45 39 Q 13.05 39.5 15.2 39.5 25.55 39.5 32.9 32.2 40.2 24.85 40.2 14.5 Z"/>
		</g><g id="middle-2" transform="matrix( 2, 0, 0, 2, -76.6,-218) ">
			<path fill="#FFFFFF" stroke="none" d=" M 77.95 119.3 Q 71.9 113.2 63.3 113.2 54.7 113.2 48.65 119.3 42.55 125.4 42.55 134 42.55 142.6 48.65 148.65 54.7 154.75 63.3 154.75 71.9 154.75 77.95 148.65 84.05 142.6 84.05 134 84.05 125.4 77.95 119.3 Z"/>
		</g><mask id="mask">
			<g transform="matrix( 2, 0, 0, 2, -76.6,-218) ">
				<path fill="#FFFFFF" stroke="none" d=" M 77.95 119.3 Q 71.9 113.2 63.3 113.2 54.7 113.2 48.65 119.3 42.55 125.4 42.55 134 42.55 142.6 48.65 148.65 54.7 154.75 63.3 154.75 71.9 154.75 77.95 148.65 84.05 142.6 84.05 134 84.05 125.4 77.95 119.3 Z"/>
			</g>
		</mask>
			
	<linearGradient id="background-gradient" x1="0" y1="0" y2="1" x2="0" >
		<stop stop-color="#c70039" offset="0%"/>
		<stop stop-color="#900c3e" offset="100%"/>
	</linearGradient>

			
			
			<g transform="scale(0.9999999237060605) translate(-95.80306243896484 -93.9994888305664)" id="picture">
    <path fill="#ff5733" d="M193.94 154.87c-1.864-2.07-5.176-2.278-7.454-.415l-.621.622-14.286-5.384c1.45-3.933 1.864-8.281 1.243-12.422l13.871-.621a4.063 4.063 0 0 0 1.863 1.863c1.864.829 4.141 0 4.97-1.863.828-1.863 0-4.14-1.864-4.969-1.863-.828-4.14 0-4.969 1.863 0 .207-.207.415-.207.622l-14.079.62c-.828-3.519-2.277-6.832-4.554-9.73l12.422-10.766c1.035.414 2.277.62 3.52.414 2.898-.621 4.554-3.52 3.933-6.418-.62-2.899-3.52-4.555-6.418-3.934-2.898.621-4.555 3.52-3.934 6.418 0 .207.207.621.207.828l-12.215 10.56c-1.45-1.45-3.105-2.9-4.762-3.934l5.176-9.938c.828 0 1.656-.207 2.485-.621 1.656-1.243 2.07-3.52 1.035-5.176-1.242-1.657-3.52-2.07-5.176-1.036-1.656 1.243-2.07 3.52-1.035 5.176l.414.414-5.176 9.731a27.263 27.263 0 0 0-15.114-2.484l.207-7.04c.828-.207 1.45-.828 1.863-1.656 1.036-1.863.414-4.14-1.242-5.176-1.863-1.035-4.14-.414-5.176 1.242-1.035 1.864-.414 4.141 1.242 5.176.207 0 .414.207.621.207l-.414 7.66c-2.898.622-5.59 1.864-8.074 3.52l-7.66-11.18c.413-.62.828-1.449.828-2.484-.207-2.07-1.864-3.727-3.934-3.52-2.07.207-3.727 1.864-3.52 3.934.207 2.07 1.864 3.727 3.934 3.52h.621l7.868 11.18c-.415.207-.829.621-1.036.828-2.691 2.277-4.555 4.969-6.21 7.867l-10.146-7.039c.207-.828.207-1.656-.207-2.484a3.549 3.549 0 0 0-4.969-1.657 3.549 3.549 0 0 0-1.656 4.97 3.549 3.549 0 0 0 4.969 1.656.445.445 0 0 0 .414-.414l10.145 7.453c-.828 2.07-1.242 4.14-1.656 6.211l-6.212-1.45c0-.62-.414-1.241-.828-1.655-1.035-1.036-2.898-.829-3.934.207-.828 1.449-.828 3.105.415 4.14 1.242 1.036 2.898.829 3.933-.207 0-.207.207-.207.207-.414l6.419 1.657c-.207 3.933.414 8.074 2.07 11.8l-15.114 9.318c-1.242-.829-2.898-1.45-4.555-1.243-3.726.207-6.625 3.52-6.418 7.454.207 3.726 3.52 6.625 7.453 6.418 3.727-.207 6.626-3.52 6.419-7.454 0-.414-.207-.828-.207-1.035l14.7-8.902c.62 1.035 1.449 1.863 2.07 2.898 3.312 3.727 7.246 6.418 11.594 7.868l-3.52 12.422c-.828 0-1.656.414-2.277 1.035-1.45 1.45-1.45 3.934 0 5.383 1.45 1.45 3.934 1.45 5.383-.207 1.45-1.45 1.45-3.934-.207-5.383 0-.414-.207-.414-.414-.621l3.52-12.215c3.52.828 7.246.828 10.765.207l2.07 14.285a4.888 4.888 0 0 0-1.655 1.864c-.622 1.863.414 4.14 2.277 4.762 1.863.62 4.14-.414 4.762-2.278.621-1.863-.414-4.14-2.278-4.762-.207 0-.414-.207-.62-.207l-2.278-14.492c2.691-.829 5.383-2.07 7.867-3.934l4.97 8.074c-.415.414-.622 1.036-.622 1.864.207 1.449 1.45 2.691 2.899 2.484 1.449 0 2.691-1.45 2.484-2.898 0-1.45-1.45-2.692-2.898-2.485-.207 0-.207 0-.414.207l-4.97-8.281c.208-.207.415-.207.415-.414 2.691-2.278 4.555-4.97 6.21-7.868l14.7 5.383c0 1.242.415 2.278 1.243 3.313 1.863 2.07 5.176 2.277 7.453.414 2.692-1.864 2.899-5.176 1.035-7.247z"/>
    <path d="M149.358 128.969c-.106-1.22-1.166-2.173-2.384-2.173s-2.28.954-2.385 2.173c-2.332.742-4.293 2.65-5.459 5.087 2.544.53 5.194.795 7.897.795s5.352-.265 7.896-.795c-1.272-2.438-3.233-4.292-5.565-5.087zm-11.446 9.75l-3.127.054c-.318 0-.53.265-.53.583v.583c0 .318.265.53.583.53l3.074-.107c.053.636.106 1.325.265 1.961l-2.491.742c-.318.16-.477.477-.371.742l.159.53c.106.318.424.477.689.371l2.438-.742c.212.636.476 1.272.741 1.908l-2.384 1.537c-.265.159-.318.53-.16.795l.319.477c.159.265.53.318.795.159l2.278-1.484c1.378 2.278 3.339 3.974 5.565 4.451v-15.156c-2.491-.053-4.929-.371-7.26-.848-.318.9-.53 1.855-.583 2.915zm21.25.054l-3.126-.053c-.053-1.007-.265-2.014-.53-2.915-2.332.477-4.77.795-7.26.848v15.156c2.225-.477 4.186-2.173 5.564-4.451l2.279 1.484c.265.159.583.106.795-.16l.317-.476c.16-.265.106-.583-.158-.795l-2.385-1.537c.265-.636.53-1.219.742-1.908l2.437.742c.318.106.583-.053.69-.37l.158-.53c.106-.319-.053-.584-.37-.69l-2.491-.742a24.9 24.9 0 0 0 .265-1.96l3.073.052c.318 0 .583-.264.583-.53v-.582c-.053-.318-.318-.583-.583-.583z" fill="#fff"/>
</g>
			
		</defs>

		

			<use xlink:href="#background" fill="url(#background-gradient)" />

		<use xlink:href="#middle-1" /><use xlink:href="#middle-2" />

			<g mask="url(#mask)">
				<g transform="
				        translate(
                                50 50
)
                            translate(0 0)  scale(0.5750000000000001)  
                            translate(
                                -50 -50
)">
						<use xlink:href="#picture"   />
				</g>
			</g>

		



	</svg>
